<?xml version="1.0" encoding="UTF-8" standalone="no"?>
<!-- Uploaded to: SVG Repo, www.svgrepo.com, Generator: SVG Repo Mixer Tools -->

<svg
   height="800px"
   width="800px"
   version="1.1"
   id="Capa_1"
   viewBox="0 0 47.94 47.94"
   xml:space="preserve"
   sodipodi:docname="star1.svg"
   inkscape:version="1.1.2 (b8e25be833, 2022-02-05)"
   xmlns:inkscape="http://www.inkscape.org/namespaces/inkscape"
   xmlns:sodipodi="http://sodipodi.sourceforge.net/DTD/sodipodi-0.dtd"
   xmlns:xlink="http://www.w3.org/1999/xlink"
   xmlns="http://www.w3.org/2000/svg"
   xmlns:svg="http://www.w3.org/2000/svg"><defs
   id="defs7"><linearGradient
     inkscape:collect="always"
     id="linearGradient1426-0"><stop
       style="stop-color:#d9ed19;stop-opacity:1;"
       offset="0"
       id="stop1422" /><stop
       style="stop-color:#ff7421;stop-opacity:1"
       offset="1"
       id="stop1424" /></linearGradient><radialGradient
     inkscape:collect="always"
     xlink:href="#linearGradient1426-0"
     id="radialGradient1460"
     gradientUnits="userSpaceOnUse"
     gradientTransform="matrix(1,0,0,0.93051262,0,1.6718105)"
     cx="23.998996"
     cy="24.059197"
     fx="23.998996"
     fy="24.059197"
     r="23.39714" /></defs><sodipodi:namedview
   id="namedview5"
   pagecolor="#ffffff"
   bordercolor="#666666"
   borderopacity="1.0"
   inkscape:pageshadow="2"
   inkscape:pageopacity="0.0"
   inkscape:pagecheckerboard="0"
   showgrid="false"
   inkscape:zoom="0.2628125"
   inkscape:cx="298.69203"
   inkscape:cy="-148.39477"
   inkscape:window-width="1920"
   inkscape:window-height="1027"
   inkscape:window-x="-8"
   inkscape:window-y="-8"
   inkscape:window-maximized="1"
   inkscape:current-layer="Capa_1" />
<path
   style="fill:url(#radialGradient1460);stroke-width:1.1985;stroke-miterlimit:4;stroke-dasharray:none;stroke:#d76d00;stroke-opacity:1;fill-opacity:1"
   d="m 26.200665,4.2009547 5.1434,10.1250473 c 0.357669,0.704206 1.049226,1.19216 1.849226,1.304907 l 11.501543,1.623741 c 2.014744,0.28464 2.818549,2.689292 1.361237,4.069056 l -8.322472,7.881197 c -0.578359,0.548025 -0.842806,1.338177 -0.705826,2.111695 l 1.964328,11.12868 c 0.344352,1.949043 -1.761712,3.435085 -3.563376,2.51555 L 25.141926,39.707005 c -0.715339,-0.365041 -1.570511,-0.365041 -2.28585,0 l -10.286799,5.253823 c -1.801664,0.920459 -3.9077271,-0.566507 -3.5633752,-2.51555 l 1.9643272,-11.12868 c 0.13698,-0.773518 -0.127467,-1.56367 -0.705826,-2.111695 L 1.941932,21.323706 C 0.48461964,19.943018 1.2884244,17.538366 3.3031683,17.25465 L 14.804711,15.630909 c 0.799999,-0.112747 1.491557,-0.600701 1.849226,-1.304907 l 5.1434,-10.1250473 c 0.899881,-1.7734541 3.502496,-1.7734541 4.403328,0 z"
   id="path2" />
</svg>
